<?xml version="1.0" encoding="UTF-8" standalone="no"?>
<svg
   xmlns:dc="http://purl.org/dc/elements/1.1/"
   xmlns:cc="http://creativecommons.org/ns#"
   xmlns:rdf="http://www.w3.org/1999/02/22-rdf-syntax-ns#"
   xmlns:svg="http://www.w3.org/2000/svg"
   xmlns="http://www.w3.org/2000/svg"
   xmlns:sodipodi="http://sodipodi.sourceforge.net/DTD/sodipodi-0.dtd"
   xmlns:inkscape="http://www.inkscape.org/namespaces/inkscape"
   style="height: 40px; width: 40px;"
   viewBox="0 0 512 512"
   version="1.1"
   id="svg4753"
   sodipodi:docname="licano3.svg"
   inkscape:version="0.92.4 (5da689c313, 2019-01-14)">
  <metadata
     id="metadata4759">
    <rdf:RDF>
      <cc:Work
         rdf:about="">
        <dc:format>image/svg+xml</dc:format>
        <dc:type
           rdf:resource="http://purl.org/dc/dcmitype/StillImage" />
        <dc:title></dc:title>
      </cc:Work>
    </rdf:RDF>
  </metadata>
  <defs
     id="defs4757" />
  <sodipodi:namedview
     pagecolor="#ffffff"
     bordercolor="#666666"
     borderopacity="1"
     objecttolerance="10"
     gridtolerance="10"
     guidetolerance="10"
     inkscape:pageopacity="0"
     inkscape:pageshadow="2"
     inkscape:window-width="1304"
     inkscape:window-height="745"
     id="namedview4755"
     showgrid="false"
     inkscape:zoom="0.4609375"
     inkscape:cx="-106.46977"
     inkscape:cy="213.65812"
     inkscape:window-x="54"
     inkscape:window-y="-8"
     inkscape:window-maximized="1"
     inkscape:current-layer="svg4753" />
  <rect
     fill="#f44336"
     fill-opacity="1"
     height="512"
     width="512"
     rx="60"
     ry="60"
     id="rect4747"
     style="fill:#673ab7;fill-opacity:1" />
  <path
     style="fill:#ffffff;fill-opacity:1;stroke-width:0.89999998"
     inkscape:connector-curvature="0"
     id="path4749"
     d="m 427.3096,196.375 c -17.5176,-0.0927 -38.052,8.8587 -54.7875,25.5942 -5.2002,5.1984 -9.6156,10.7802 -13.275,16.5087 -25.8606,-15.5817 -62.7894,-16.4367 -99.198,-7.1712 -0.018,-0.0837 -0.036,-0.1683 -0.0567,-0.252 -11.1213,2.8206 -22.2534,6.5232 -33.0183,11.0808 l 0.1692,0.3654 C 148.5481,276.2563 90.4315,354.0919 183.9145,424.3576 H 67.027 L 41.125,471.127 h 251.8875 l -86.652,-101.1366 c 23.7726,-26.1603 66.069,-42.8256 95.004,-44.1558 13.5135,44.172 35.5005,111.1644 70.2585,145.2654 h 59.625 c -42.192,-45.5976 -74.9862,-106.8606 -80.271,-176.175 1.584,3.1707 3.6198,6.093 6.1605,8.6346 18.2808,18.2808 54.8154,11.3913 81.5904,-15.3846 26.7768,-26.775 33.6663,-63.3096 15.3855,-81.5904 -6.8553,-6.8553 -16.2927,-10.1538 -26.802,-10.2096 z"
     sodipodi:nodetypes="ccccccccccccccccccscc" />
  <path
     style="fill:#ffffff;fill-opacity:1;stroke-width:0.99443579"
     inkscape:connector-curvature="0"
     id="path26-6-9"
     d="M 170.68103,334.31471 C 45.783698,355.09649 43.359233,313.88728 31.214657,308.22583 l 24.989951,-2.71934 C 21.88543,270.86477 27.762866,235.01358 33.063146,216.44325 c 8.342168,6.86056 30.677337,34.06903 47.199164,50.05517 1.78183,-6.71214 -1.46318,-12.71096 9.8552,-19.46261 16.14796,40.26843 39.09919,69.0709 77.92498,52.61978 22.22,1.93967 2.63854,34.65912 2.63854,34.65912 z"
     sodipodi:nodetypes="cccccccc" />
</svg>
