<?xml version="1.0" encoding="UTF-8" standalone="no"?>
<svg
   xmlns:dc="http://purl.org/dc/elements/1.1/"
   xmlns:cc="http://creativecommons.org/ns#"
   xmlns:rdf="http://www.w3.org/1999/02/22-rdf-syntax-ns#"
   xmlns:svg="http://www.w3.org/2000/svg"
   xmlns="http://www.w3.org/2000/svg"
   xmlns:sodipodi="http://sodipodi.sourceforge.net/DTD/sodipodi-0.dtd"
   xmlns:inkscape="http://www.inkscape.org/namespaces/inkscape"
   style="height: 40px; width: 40px;"
   viewBox="0 0 512 512"
   version="1.1"
   id="svg6682"
   sodipodi:docname="lobinho.svg"
   inkscape:version="0.92.4 (5da689c313, 2019-01-14)">
  <metadata
     id="metadata6688">
    <rdf:RDF>
      <cc:Work
         rdf:about="">
        <dc:format>image/svg+xml</dc:format>
        <dc:type
           rdf:resource="http://purl.org/dc/dcmitype/StillImage" />
        <dc:title></dc:title>
      </cc:Work>
    </rdf:RDF>
  </metadata>
  <defs
     id="defs6686" />
  <sodipodi:namedview
     pagecolor="#ffffff"
     bordercolor="#666666"
     borderopacity="1"
     objecttolerance="10"
     gridtolerance="10"
     guidetolerance="10"
     inkscape:pageopacity="0"
     inkscape:pageshadow="2"
     inkscape:window-width="1304"
     inkscape:window-height="745"
     id="namedview6684"
     showgrid="false"
     inkscape:zoom="0.65186406"
     inkscape:cx="262.14588"
     inkscape:cy="159.08086"
     inkscape:window-x="54"
     inkscape:window-y="-8"
     inkscape:window-maximized="1"
     inkscape:current-layer="svg6682" />
  <rect
     fill="#f44336"
     fill-opacity="1"
     height="512"
     width="512"
     rx="60"
     ry="60"
     id="rect6676" />
  <g
     class=""
     transform="matrix(1.2564143,0,0,1.2564143,-100.96129,-62.782945)"
     id="g6680">
    <path
       id="path6678"
       style="fill:#ffffff;fill-opacity:1;stroke-width:0.89999998"
       d="m 276.39844,65.367188 c -0.0488,0.601775 -0.12148,1.203344 -0.19727,1.804687 0.22762,-0.438996 0.45428,-0.878716 0.67774,-1.318359 -0.16029,-0.159923 -0.32052,-0.334316 -0.48047,-0.486328 z m 28.83203,153.552732 c -25.98051,15.11965 -54.63008,22.31922 -84.33008,31.94922 1.17,39.33 3.14891,51.12133 11.87891,81.36133 19.17,3.51 43.8307,2.96953 63.7207,-1.98047 l 17.64062,-5.75977 c 15.21,-6.03 28.88868,-13.5 28.88868,-13.5 18.99,2.52 43.46984,6.9293 49.58984,17.2793 3.51,6.12 -1.5293,16.29047 2.9707,19.98047 11.79,9.63 21.24071,0.98977 23.22071,-5.49023 1.98,-12.06 2.42922,-23.12946 -1.80078,-32.93946 -1.98,-4.5 -31.59024,-21.51023 -52.74024,-27.99023 24.57,4.14 63.81016,8.10015 65.16016,13.41015 2.34,8.82 -0.63016,21.32922 6.83984,22.94922 17.01,3.69 19.53102,0.54 20.79102,-13.5 0.81,-8.46 1.34953,-16.01906 -4.23047,-23.03906 -5.94,-7.47 -51.29938,-19.44101 -70.10938,-23.04101 22.41,-14.67001 24.74994,-17.54844 32.66992,-25.64844 29.97002,-4.05 39.33032,-16.47047 44.82032,-35.73047 9.72,-5.31 4.04914,-17.73 -0.63086,-18 -13.95,-0.63 -33.11992,0.9 -46.16992,-4.5 -4.86,-6.66 -13.40938,-11.07109 -22.85938,-15.12109 -2.97,-6.84002 4.68008,-22.94985 -1.16992,-29.33985 -8.73,3.51 -19.70992,20.97055 -23.66992,27.81055 -1.62,-8.82 -7.74172,-16.73961 -12.51172,-23.84961 -20.97,25.56 -19.43875,43.28867 -32.21875,71.63867 -15.75,13.05078 -9.8571,9.62134 -15.75,13.05078 z m 85.41015,-47.07031 c 3.15002,-0.09 6.29907,3.78 7.28907,9 1.08,5.58 -0.81063,10.62 -4.14063,11.25 -3.33,0.63 -6.83992,-3.42 -7.91992,-9 -0.99,-5.58 0.81063,-10.53016 4.14063,-11.16016 0.18,-0.09 0.45085,-0.0898 0.63085,-0.0898 z m -249.89648,55.81055 c 5.571,25.56 8.75615,51.30078 51.78516,55.80078 -9.09,29.16 -38.2488,46.61851 -79.2168,71.72851 -11.862,7.29 -17.018672,23.76008 -8.51367,32.58008 22.716,-8.28 53.8824,-27.8093 73.6914,-42.0293 -8.37,10.08 -23.89582,25.82899 -31.92382,35.45899 -12.006,14.22 -7.10889,21.33047 1.16211,26.73047 24.912,-17.82 52.5407,-46.89063 68.4707,-69.39063 l 19.98047,-7.73828 c -7.92,-29.61 -9.35891,-53.4607 -9.62891,-79.4707 -35.82,-2.7 -63.16264,-6.56992 -85.80664,-23.66992 z"
       inkscape:connector-curvature="0"
       sodipodi:nodetypes="ccccaccccccccccccccccccccccccaccsccccccccccccccc" />
  </g>
</svg>
