<?xml version="1.0" encoding="UTF-8" standalone="no"?>
<svg
   xmlns:dc="http://purl.org/dc/elements/1.1/"
   xmlns:cc="http://creativecommons.org/ns#"
   xmlns:rdf="http://www.w3.org/1999/02/22-rdf-syntax-ns#"
   xmlns:svg="http://www.w3.org/2000/svg"
   xmlns="http://www.w3.org/2000/svg"
   xmlns:sodipodi="http://sodipodi.sourceforge.net/DTD/sodipodi-0.dtd"
   xmlns:inkscape="http://www.inkscape.org/namespaces/inkscape"
   style="height: 40px; width: 40px;"
   viewBox="0 0 512 512"
   version="1.1"
   id="svg59"
   sodipodi:docname="lupino2.svg"
   inkscape:version="0.92.4 (5da689c313, 2019-01-14)">
  <metadata
     id="metadata65">
    <rdf:RDF>
      <cc:Work
         rdf:about="">
        <dc:format>image/svg+xml</dc:format>
        <dc:type
           rdf:resource="http://purl.org/dc/dcmitype/StillImage" />
        <dc:title></dc:title>
      </cc:Work>
    </rdf:RDF>
  </metadata>
  <defs
     id="defs63" />
  <sodipodi:namedview
     pagecolor="#ffffff"
     bordercolor="#666666"
     borderopacity="1"
     objecttolerance="10"
     gridtolerance="10"
     guidetolerance="10"
     inkscape:pageopacity="0"
     inkscape:pageshadow="2"
     inkscape:window-width="1304"
     inkscape:window-height="745"
     id="namedview61"
     showgrid="false"
     inkscape:zoom="0.35355339"
     inkscape:cx="-392.00585"
     inkscape:cy="286.09617"
     inkscape:window-x="54"
     inkscape:window-y="-8"
     inkscape:window-maximized="1"
     inkscape:current-layer="g189" />
  <g
     id="g189">
    <rect
       id="rect53"
       ry="60"
       rx="60"
       width="512"
       height="512"
       fill-opacity="1"
       fill="#f44336" />
    <g
       id="g57"
       transform="translate(0,0)"
       style="touch-action: none;"
       class="">
      <path
         sodipodi:nodetypes="cccccccccccccccccccccccccccccccccccccccccccc"
         style="fill:#ffffff;fill-opacity:1"
         inkscape:connector-curvature="0"
         id="path55"
         transform="matrix(0.9,0,0,0.9,25.6,25.6)"
         d="m 406,27.594 -23.625,76.187 -5.844,28.97 -52.25,47.844 -51.5,-43.125 -23.405,-4.095 C 228.02271,94.631355 225.68578,96.762996 218.67189,66.793667 204.92536,82.451516 186.03801,86.363242 209.814,126.375 L 174.656,120.25 106,195.906 l 77.344,55.875 1.625,16.845 -0.89135,108.40503 -21.87024,56.85827 -11.42841,50.4867 54.04455,-1.20527 -12.86078,-35.53408 28.42288,-42.27192 7.08235,-90.23873 35.05604,83.8198 -3.23478,46.31547 4.00001,40.32 49.52273,-1.20527 -3.564,-16.406 17.094,16.405 63.062,-322.53 c 5.01,-4.54 9.265,-8.483 12.094,-11.314 0.177,-10.537 -2.537,-18.942 -5.094,-24.5 l 1.125,-5.686 8.47,-92.75 z m -223.156,125.78 0.344,64.095 -31.5,-23.75 z m 88.03,21.25 50.876,45.94 c 0,0 22.993,-19.458 44.875,-38.533 L 309.187,467.595 295.49852,440.15759 306.57419,386.86256 266.375,270.065 l 4.5,-95.44 z" />
    </g>
    <path
       sodipodi:nodetypes="cccccccccccccccsc"
       d="M 197.51967,97.18636 C 182.68659,80.55715 182.09768,63.92793 181.05378,47.29872 c 10.20058,3.05324 21.32395,9.38301 36.86898,24.94382 h 96.64602 l -15.74881,33.13379 -9.98655,-13.51132 -15.42776,16.48925 -13.96028,-17.497 -18.61328,22.33713 8.59084,10.79733 9.66486,-12.65887 12.88563,14.51974 16.10767,-14.14716 8.23326,8.19064 -7.51683,18.98663 c -39.58251,23.77117 -98.33347,30.94447 -83.13386,11.60949 8.76893,-11.15469 -16.90682,-50.09571 -8.144,-53.30583 z"
       id="path26"
       inkscape:connector-curvature="0"
       style="fill:#ffffff;fill-opacity:1;stroke-width:0.65353501" />
  </g>
</svg>
